<svg xmlns="http://www.w3.org/2000/svg" width="24" height="24"><path fill="none" d="M0 0h24v24H0V0z"/><g fill="currentColor"><path opacity=".3" d="M9.25 11h2.25v2H9.25zM9.25 15h2.25v2H9.25zM9.25 7h2.25v2H9.25zM13.5 15h2.25v2H13.5zM5 15h2.25v2H5zM5 11h2.25v2H5zM5 7h2.25v2H5zM17.75 7H20v2h-2.25zM13.5 11h2.25v2H13.5zM13.5 7h2.25v2H13.5zM17.75 15H20v2h-2.25zM17.75 11H20v2h-2.25z"/><path d="M3 5v14h19V5H3zm4.25 12H5v-2h2.25v2zm0-4H5v-2h2.25v2zm0-4H5V7h2.25v2zm4.25 8H9.25v-2h2.25v2zm0-4H9.25v-2h2.25v2zm0-4H9.25V7h2.25v2zm4.25 8H13.5v-2h2.25v2zm0-4H13.5v-2h2.25v2zm0-4H13.5V7h2.25v2zM20 17h-2.25v-2H20v2zm0-4h-2.25v-2H20v2zm0-4h-2.25V7H20v2z"/></g></svg>